#!OML:ASF F:\VICON\USERDATA\INSTALL\rory3\rory3.ASF
:FULLY-SPECIFIED
:DEGREES
82
root 0.6343770544200673 17.871533285730234 37.61232228592098 -4.2564051892560135 -4.874910591276845 0.03635654674804467
lfemur -13.513525941142152 -2.0984338639295297 -23.39365345453395
ltibia 27.818747020342375
lfoot -5.544588661832643 -3.5060151634281365
ltoes -2.517911740040485
rfemur -11.68352249304549 0.7214553571554561 22.63494704890319
rtibia 70.35902851168352
rfoot -0.3518083904484426 -6.425746304121311
rtoes 2.894332542475453
lowerback 10.163191475629725 1.3229193450362682 1.0524005449197573
upperback 0.3524119664013773 1.9326720202060015 0.844420470965974
thorax -5.345932952410624 1.3777994484106424 -1.080530937789374
lowerneck -15.920617325390227 -2.950292880871947 -2.897398645074811
upperneck 21.260547435851947 -3.633917535605192 1.523316426456744
head 9.304598134214432 -1.801997577102007 0.44925615904110644
lclavicle -4.519238007079311e-16 -7.862609429732362e-16
lhumerus -32.97314760909961 4.783736242984398 79.93911410199608
lradius 19.678273192236475
lwrist 3.384320581905614
lhand -27.776321911367848 21.359887692138585
lfingers 7.12502
lthumb -1.338005949109964 50.85577578195434
rclavicle -4.529626748004647e-16 -7.762440652312367e-16
rhumerus -27.273035547768075 -16.300826359977776 -80.125500674574
rradius 31.10618935761906
rwrist 2.827864720881135
rhand -17.674187672873906 22.666206479537873
rfingers 7.12502
rthumb 8.531430211194715 -7.157990733153306
83
root 0.6406623338470463 17.879651729833416 38.00183912386115 -4.420712272108372 -4.398306809993906 0.4717807199846962
lfemur -10.283537524594394 -2.2641657680190974 -24.08351027362953
ltibia 27.33258408427913
lfoot -6.411562527004734 -2.8475323632072813
ltoes -2.700259139229139
rfemur -14.896937596207286 0.1574367694487271 22.29419951645885
rtibia 73.83412647700399
rfoot -0.9004406785586001 -6.37886014816844
rtoes 1.7366422077028483
lowerback 10.373268769061148 1.090231223466987 0.37971602414367445
upperback 0.4008511036127533 1.5093754182572896 0.8241358011569178
thorax -5.45059471659649 1.2137126946082781 -0.7037289562211817
lowerneck -15.950605756587303 -2.9406386404196225 -2.892404547027974
upperneck 21.245642731337913 -3.6116975888869463 1.5191130836874405
head 9.305109318333981 -1.7887402946778466 0.448557122714905
lclavicle -4.519237998933139e-16 -7.862609445202983e-16
lhumerus -32.82164114751561 4.043643071836999 79.75463524835828
lradius 19.879395934177335
lwrist 3.946959027905401
lhand -27.76773196689332 21.421139454237856
lfingers 7.12502
lthumb -1.3576408948395873 50.844926470459974
rclavicle -4.5296267591079975e-16 -7.7624406609003905e-16
rhumerus -27.93500479865843 -16.84094621629541 -79.91628504957784
rradius 29.880914450715185
rwrist 3.4831632434174575
rhand -17.655941053711054 22.647586246382733
rfingers 7.12502
rthumb 8.560382774624498 -7.117495897037754
84
root 0.6379101131566122 17.87121466561491 38.444869920988424 -4.418416052944007 -3.733137074979136 0.8175719947816735
lfemur -7.427348051758841 -2.482386595453032 -24.711883979949498
ltibia 27.053540923341266
lfoot -6.844831932719346 -2.8277031606020464
ltoes -2.812305029116196
rfemur -17.468040693524692 0.01025382818008147 22.145305669525918
rtibia 74.48176968578096
rfoot -1.5705424208459426 -6.405419100941279
rtoes 0.6367611715744861
lowerback 10.544849440890408 0.8187805256119238 -0.17820038193181365
upperback 0.43598662804272065 1.069563892501794 0.8452043327032971
thorax -5.536041712843245 1.0095578121839843 -0.2969962923636793
lowerneck -15.965395396267812 -2.93084232484293 -2.885592532396057
upperneck 21.209876544034984 -3.620200811721617 1.5629885237292975
head 9.30589304414969 -1.777886549874823 0.46249310280509465
lclavicle -4.519237999694788e-16 -7.862609428590419e-16
lhumerus -32.296306649104764 3.761083428589948 79.59782882300422
lradius 20.239842859072198
lwrist 4.5603965283918635
lhand -27.76517559825734 21.4804533419375
lfingers 7.12502
lthumb -1.3638219186632865 50.88185521969419
rclavicle -4.529626744387523e-16 -7.762440649703676e-16
rhumerus -28.63129933264086 -17.05838490902649 -79.73125777977938
rradius 28.74347865012604
rwrist 3.5874644315289856
rhand -17.640911877107943 22.634277790697876
rfingers 7.12502
rthumb 8.58830592454172 -7.089939340959567
85
root 0.6289347458935981 17.85260075740016 39.00169146510887 -4.216002777725435 -3.035284404970659 1.1894177269253734
lfemur -5.092572811903364 -2.6371117684016108 -25.436252826286772
ltibia 26.901978370216543
lfoot -7.399895032528344 -2.6908785372642883
ltoes -2.9369161397688495
rfemur -20.146230287315657 -0.06358921062024514 21.808064425656273
rtibia 72.40948721786107
rfoot -2.22399215963718 -6.7045170212855405
rtoes -0.23124312990815188
lowerback 10.663563674472703 0.517766203087894 -0.6936037139032896
upperback 0.4583173357832198 0.6529146336846533 0.8936007891247113
thorax -5.59028070440065 0.7706955411445453 0.12580495005342002
lowerneck -15.96246234460784 -2.9217828932900907 -2.8720017420900916
upperneck 21.16383737387252 -3.647004005285155 1.6303710306296464
head 9.313575200281845 -1.7684424407671844 0.48992861712877706
lclavicle -4.519237880583327e-16 -7.862609328526301e-16
lhumerus -31.615114313561328 3.8090131968254983 79.49867030982416
lradius 20.744266646545725
lwrist 5.149721727585453
lhand -27.759184157011408 21.55861230896845
lfingers 7.12502
lthumb -1.3649341599324245 50.9436384502723
rclavicle -4.529626766729925e-16 -7.762440667172505e-16
rhumerus -29.14040180729536 -16.915390805024956 -79.47740313752821
rradius 27.852084144731847
rwrist 3.324919869241972
rhand -17.625048078335308 22.637191252088556
rfingers 7.12502
rthumb 8.602352596457875 -7.0990683171251
86
root 0.613171949470775 17.834562853723476 39.68167858381445 -3.7966203831521805 -2.3954151572627547 1.6317283217855607
lfemur -2.649622813266485 -2.572345802065257 -26.111583112765842
ltibia 26.19589788122179
lfoot -7.52881485057748 -2.406338705194965
ltoes -3.0874660618216225
rfemur -22.225718296207326 -0.007907156507540147 21.49783911475108
rtibia 67.61531173921264
rfoot -2.399261089155469 -7.1266894799708105
rtoes -0.916529644083651
lowerback 10.722648252114807 0.213198377471318 -1.1982239998905182
upperback 0.46639093949694094 0.26684396493003065 0.9500238370887095
thorax -5.602457762874848 0.5094793138280802 0.5532800928048122
lowerneck -15.94787124237194 -2.917131462909672 -2.8605711981522997
upperneck 21.128925563338036 -3.6719190047212775 1.700483885474806
head 9.328011628599358 -1.7601653492356317 0.5187850845540449
lclavicle -4.519237966998267e-16 -7.862609420190089e-16
lhumerus -31.140642360660163 3.8273074467897663 79.39509329857337
lradius 21.378493382238425
lwrist 5.623525035115743
lhand -27.75213201727362 21.648854940842387
lfingers 7.12502
lthumb -1.3610584098610927 51.029232043913936
rclavicle -4.529626744244525e-16 -7.762440648414419e-16
rhumerus -29.615830434933738 -16.737652036125855 -79.34387708371455
rradius 27.271829811287592
rwrist 3.0187787670120487
rhand -17.606295719019467 22.65656160670453
rfingers 7.12502
rthumb 8.606623698593612 -7.129068954658621
87
root 0.5884783586165723 17.823107260444928 40.4079958453516 -3.1831940878921614 -1.8151533237697413 2.084042186962634
lfemur -0.13375794921172712 -2.2712241492139102 -26.628754029236433
ltibia 24.287546214988907
lfoot -7.489290989788805 -2.521649490079503
ltoes -3.18255110625356
rfemur -23.642974723756357 0.3700859689520404 21.102483185250833
rtibia 60.01091897870924
rfoot -2.0461569604431142 -7.420270894007237
rtoes -1.0657429382869283
lowerback 10.704399928324934 -0.06407571564870312 -1.682204662697379
upperback 0.45682984448800046 -0.09255601720652784 0.9980706228999928
thorax -5.564708652449105 0.24465710572465757 0.9832186003727157
lowerneck -15.931082815078158 -2.9195486735176437 -2.856321120002426
upperneck 21.117170213890766 -3.6850002995429136 1.7532318106499738
head 9.341577081154501 -1.7537330121829606 0.5354511465246555
lclavicle -4.5192379772598e-16 -7.862609443329474e-16
lhumerus -30.636102471947684 3.8553336138244303 79.42800408487619
lradius 22.12866652738133
lwrist 6.112362553013516
lhand -27.763972252727477 21.69339805142378
lfingers 7.12502
lthumb -1.359850362228944 51.10871838984206
rclavicle -4.529626760004263e-16 -7.762440659154247e-16
rhumerus -30.146953273644588 -16.835299946947856 -79.27377751274221
rradius 26.96495376218956
rwrist 2.9049982848250537
rhand -17.581682565831986 22.691720589999743
rfingers 7.12502
rthumb 8.606291291138568 -7.163716435128308
